<svg xmlns="http://www.w3.org/2000/svg" viewBox="0 0 588 588"><defs><style>.cls-1{fill:#0b131b;}.cls-2,.cls-3{fill:#1eeb92;}.cls-2{stroke:#1eeb92;stroke-miterlimit:10;stroke-width:0.5px;}</style></defs><g id="Layer_2" data-name="Layer 2"><g id="Layer_1-2" data-name="Layer 1"><circle class="cls-1" cx="294" cy="294" r="294"/><path id="path476" class="cls-2" d="M294.46,486.8c106.44,0,192.28-82.4,192.28-199.14C486.74,174.35,400.9,92,294.46,92c-109.87,0-192.27,85.84-192.27,195.71C102.19,404.4,188,486.8,294.46,486.8M54.12,291.09C54.12,153.75,164,54.18,294.46,54.18S534.8,153.75,534.8,291.09,424.93,528,294.46,528,54.12,428.43,54.12,291.09"/><path class="cls-3" d="M411.2,301.39c-10.3-6.87-24-6.87-34.33,3.44a108.8,108.8,0,0,1-164.81,0c-6.87-10.31-24-10.31-34.33-3.44s-10.3,24-3.44,34.34c30.9,34.33,72.1,54.93,116.74,54.93s89.27-20.6,116.74-54.93C421.5,325.43,421.5,311.69,411.2,301.39Z"/><path class="cls-3" d="M373.43,208.69c-24,0-54.93,17.17-58.37,41.2,0,10.3,10.3,17.17,20.6,10.3l10.3-6.87c13.74-13.73,44.64-13.73,58.37,0l10.3,6.87c6.87,6.87,20.6,0,20.6-10.3-6.86-24-37.76-41.2-61.8-41.2Z"/><path class="cls-3" d="M222.36,208.69c-24,0-54.94,17.17-58.37,41.2,0,10.3,10.3,17.17,20.6,10.3l10.3-6.87c13.73-13.73,44.64-13.73,58.37,0l10.3,6.87c6.87,6.87,20.6,0,20.6-10.3-6.86-24-37.77-41.2-61.8-41.2Z"/></g></g></svg>